<svg xmlns="http://www.w3.org/2000/svg" width="115" height="115" viewBox="0 0 115 115">
  <g fill="none" fill-rule="evenodd">
    <circle cx="58" cy="58" r="43" fill="#333" stroke="#333" stroke-width="10"/>
    <polygon fill="#FFF" fill-rule="nonzero" points="40.869 69.087 33.779 61.514 54.486 61.514 54.486 82.221 46.913 75.131 42.116 80.262 58 95.135 73.884 80.262 69.087 75.131 61.514 82.221 61.514 61.514 82.221 61.514 75.131 69.087 80.262 73.884 95.135 58 80.262 42.116 75.131 46.913 82.221 54.486 61.514 54.486 61.514 33.779 69.087 40.869 73.884 35.738 58 20.865 42.116 35.738 46.913 40.869 54.486 33.779 54.486 54.486 33.779 54.486 40.869 46.913 35.738 42.116 20.865 58 35.738 73.884"/>
  </g>
</svg>
