<svg xmlns="http://www.w3.org/2000/svg" width="115" height="115" viewBox="0 0 115 115">
  <g fill="none" fill-rule="evenodd">
    <path fill="#333" d="M52.592263,77.648971 L64.2524038,77.648971 L64.2524038,88.95696 L52.592263,88.95696 L52.592263,77.648971 Z M38.3105469,49.4768187 C38.6235724,42.0424635 41.2190364,36.7732803 46.0970168,33.669111 C49.1751007,31.6866163 52.9574351,30.6953838 57.4441337,30.6953838 C63.3394469,30.6953838 68.2369179,32.1039773 72.1366937,34.9212066 C76.0364695,37.7384359 77.9863281,41.9120464 77.9863281,47.4421632 C77.9863281,50.8332726 77.1385635,53.6895873 75.4430088,56.0111929 C74.4517615,57.4198076 72.5475517,59.2196771 69.7303224,61.4108554 L66.9522351,63.5628949 C65.4392786,64.7367404 64.4350036,66.1062063 63.9393799,67.6713337 C63.6263545,68.6625811 63.4568015,70.2016 63.4307161,72.2884365 L52.8661589,72.2884365 C53.0226717,67.8799943 53.4400327,64.8345629 54.1182546,63.152051 C54.7964765,61.469539 56.5441758,59.5327229 59.3614052,57.3415445 L62.2177484,55.1112492 C63.1568248,54.4069418 63.9132917,53.6374324 64.4871718,52.8026978 C65.5305901,51.3679977 66.0522914,49.7898512 66.0522914,48.0682111 C66.0522914,46.0857164 65.4718987,44.2793256 64.3110958,42.6489845 C63.150293,41.0186435 61.0308814,40.2034852 57.9527976,40.2034852 C54.9268846,40.2034852 52.7813879,41.2077602 51.5162433,43.2163404 C50.2510986,45.2249205 49.6185358,47.3117258 49.6185358,49.4768187 L38.3105469,49.4768187 Z"/>
    <circle cx="58" cy="58" r="43" stroke="#333" stroke-width="10"/>
  </g>
</svg>
