<svg xmlns="http://www.w3.org/2000/svg" width="84" height="54" viewBox="0 0 84 54">
  <g fill="#FFF" fill-rule="evenodd">
    <path d="M79.913 46.618C79.374 46.618 76.135 46.673 75.532 46.037 74.928 45.401 74.415 44.442 72.571 41.707L69.985 37.786 68.278 35.161C68.278 35.161 67.456 33.742 66.331 32.914 66.331 32.914 65.99 32.672 65.659 32.496 65.302 32.329 65.002 32.223 65.002 32.223 65.78 32.154 67.846 30.733 68.609 29.298 69.59 27.459 69.938 24.655 69.347 22.363 68.786 20.188 67.868 19.377 66.281 18.233 64.763 17.143 61.878 16.592 59.175 16.687L46.44 16.655 46.449 17.656 47.592 17.678C48.983 17.678 49.923 18.117 50.351 18.617 50.775 19.118 50.878 20.297 50.816 21.588L50.816 41.524C50.758 43.176 50.653 45.252 50.31 45.754 49.94 46.299 49.11 46.642 47.035 46.618L46.407 46.618 46.407 48.086 59.191 48.086 59.204 46.572 57.683 46.561C56.382 46.377 56.139 46.304 55.676 45.791 55.231 45.299 55.194 43.212 55.194 41.602 55.194 41.602 55.188 34.385 55.166 33.5 55.16 33.295 59.833 33.428 60.972 33.522 61.681 33.58 62.007 33.798 62.218 33.95 62.479 34.137 63.351 35.328 63.351 35.328 63.351 35.328 68.824 44.95 69.808 46.758 69.949 47.019 70.348 47.562 70.781 47.734 71.11 47.863 71.26 47.884 71.706 47.972 74.757 48.216 80.314 48.038 80.314 48.038L80.314 46.618 79.913 46.618zM62.444 30.794C61.663 31.362 61.025 31.572 60.119 31.664L55.194 31.828 55.194 19.219C55.194 18.656 56.141 18.656 56.141 18.656 57.706 18.42 61.878 18.543 63.157 19.452 64.437 20.363 65.623 22.048 65.623 24.047 65.623 25.982 64.98 27.872 64.049 29.222 63.604 29.868 63.029 30.364 62.444 30.794L62.444 30.794zM48.804 37.157C48.648 35.688 48.361 35.004 48.03 34.321 48.009 34.277 47.466 33.217 45.478 31.598 45.474 31.595 43.823 30.41 43.823 30.41 43.73 30.35 34.879 24.575 34.128 21.776 33.653 20.001 34.656 18.56 34.976 18.161 35.502 17.504 36.168 16.705 37.388 15.544L38.468 14.566C39.767 13.429 40.625 12.679 40.982 10.527 41.567 7.015 39.893 5.331 39.876 5.314L39.761 5.386C41.174 9.582 37.397 11.806 34.896 13.277L33.292 14.306C29.766 17.187 29.48 19.432 29.48 21.863 29.48 23.466 30.767 25.885 31.693 27.015 32.539 28.043 33.695 29.311 36.731 31.373 36.733 31.374 40.212 33.564 40.212 33.564 43.308 35.654 46.433 38.694 46.433 40.769 46.433 42.386 45.593 44.061 44.843 44.477L44.913 44.598C45 44.548 45.089 44.432 45.181 44.352 45.19 44.364 45.204 44.383 45.204 44.383 47.191 42.856 49.08 39.737 48.804 37.157L48.804 37.157zM24.094 32.124L19.723 29.165C16.992 27.308 15.542 25.441 15.542 23.508 15.542 21.976 16.289 20.182 17.392 19.183 18.494 18.183 19.165 17.7 20.899 17.647 24.649 17.535 25.714 18.871 26.764 22.492L26.864 22.805 27.918 22.805 27.705 17.907C26.897 16.967 24.287 16.078 21.847 15.958 18.42 15.792 16.188 16.908 14.583 18.233 12.745 19.754 11.702 22.53 11.702 24.867 11.702 26.436 12.022 27.884 12.934 28.994 13.845 30.104 15.019 31.666 18.15 33.492L19.617 34.53C22.805 36.683 24.677 38.194 24.677 40.258 24.677 41.893 24.101 43.397 22.892 44.592 21.642 45.828 19.525 46.7 17.792 46.7 15.877 46.7 13.105 46.129 11.769 45.141 10.377 44.111 9.085 42.698 8.466 40.698L8.351 40.389 6.609 40.389 9.016 47.072C11.471 47.89 15.252 48.687 18.007 48.687 21.315 48.687 23.847 47.868 25.81 46.364 27.773 44.858 29.054 43.06 29.196 40.475 29.287 38.826 28.939 37.053 28.119 35.932 27.572 35.186 26.823 33.979 24.094 32.124"/>
  </g>
</svg>
